<?xml version='1.0' encoding='utf-8'?>
<svg xmlns="http://www.w3.org/2000/svg" width="91.44mm" height="91.44mm" clip-rule="evenodd" fill-rule="evenodd" image-rendering="optimizeQuality" shape-rendering="geometricPrecision" text-rendering="geometricPrecision" version="1.1" viewBox="0 0 9144 9144"> <defs> <style type="text/css">.fil0 {fill:#F0F0F0} .fil1 {fill:#011627;fill-rule:nonzero}</style> </defs> <polygon class="fil0" points="0 0 9144 0 9144 9144 0 9144"/> <path class="fil1" d="m6601 4572c0-560-227-1067-594-1435-368-367-875-594-1435-594s-1067 227-1435 594c-367 368-594 875-594 1435s227 1067 594 1435c368 367 875 594 1435 594s1067-227 1435-594c367-368 594-875 594-1435zm-1428-521c-35-33-36-89-2-124 33-35 89-36 124-2 88 84 157 185 204 295 47 111 72 230 72 352 0 121-25 240-71 350-47 110-115 210-203 295-34 34-90 33-124-2-34-34-33-90 2-124 70-68 125-149 163-238 37-87 57-183 57-281s-20-194-58-283c-38-88-93-169-164-238zm322-334c-35-33-36-89-2-124 33-35 89-36 124-2 134 128 238 281 309 447 71 168 109 349 109 534s-37 365-108 532-175 319-308 447c-35 34-91 33-124-2-34-35-33-91 2-124 116-112 206-245 268-390 61-144 94-302 94-463s-33-319-95-465c-62-145-153-278-269-390zm-769 1057v-1033l-786 417v828l786 418v-630zm-962 177v-758h-310v758h310zm66-934 887-471c3-1 5-3 8-4 29-12 60-14 88-5 31 10 59 31 75 62 1 1 1 3 2 4 4 9 7 17 9 26 2 11 3 21 3 29v649c13 6 26 12 37 20 3 2 5 3 7 5 14 10 27 21 38 32 5 4 8 8 10 11 24 26 42 56 55 87 14 35 21 72 21 110 0 74-27 147-83 205-3 4-7 8-12 12-12 11-25 20-38 29-11 7-23 14-35 19v649c0 34-14 66-36 89-23 23-55 38-90 38-11 0-22-2-33-5h-1c-8-2-16-5-24-9l-2-1-886-471h-425c-34 0-66-14-89-36-23-23-38-55-38-90v-858c0-35 15-67 38-90 23-22 55-36 89-36h425zm2301-1004c399 399 646 950 646 1559s-247 1160-646 1559-950 646-1559 646-1160-247-1559-646-646-950-646-1559 247-1160 646-1559 950-646 1559-646 1160 247 1559 646z"/> </svg>